<mxfile host="app.diagrams.net" agent="Mozilla/5.0 (Windows NT 10.0; Win64; x64) AppleWebKit/537.36 (KHTML, like Gecko) Chrome/130.0.0.0 Safari/537.36" version="24.8.4" pages="3">
  <diagram name="Page-1" id="4wuVO-b4iI0Q0nvOPNT7">
    <mxGraphModel dx="1562" dy="522" grid="1" gridSize="10" guides="1" tooltips="1" connect="1" arrows="1" fold="1" page="1" pageScale="1" pageWidth="850" pageHeight="1100" math="0" shadow="0">
      <root>
        <mxCell id="0" />
        <mxCell id="1" parent="0" />
        <mxCell id="IIay3qbLuJwG-aZRrMX6-1" style="edgeStyle=orthogonalEdgeStyle;rounded=0;orthogonalLoop=1;jettySize=auto;html=1;exitX=1;exitY=0.5;exitDx=0;exitDy=0;entryX=0;entryY=0.5;entryDx=0;entryDy=0;" edge="1" parent="1" source="lTgu4MH4PJnAtv3aotc7-1" target="lTgu4MH4PJnAtv3aotc7-3">
          <mxGeometry relative="1" as="geometry" />
        </mxCell>
        <mxCell id="lTgu4MH4PJnAtv3aotc7-1" value="API data from verizon and Workday" style="rounded=0;whiteSpace=wrap;html=1;" vertex="1" parent="1">
          <mxGeometry x="50" y="210" width="120" height="60" as="geometry" />
        </mxCell>
        <mxCell id="lTgu4MH4PJnAtv3aotc7-5" style="edgeStyle=orthogonalEdgeStyle;rounded=0;orthogonalLoop=1;jettySize=auto;html=1;entryX=0.5;entryY=0;entryDx=0;entryDy=0;" edge="1" parent="1" source="lTgu4MH4PJnAtv3aotc7-2" target="lTgu4MH4PJnAtv3aotc7-3">
          <mxGeometry relative="1" as="geometry" />
        </mxCell>
        <mxCell id="lTgu4MH4PJnAtv3aotc7-7" style="edgeStyle=orthogonalEdgeStyle;rounded=0;orthogonalLoop=1;jettySize=auto;html=1;" edge="1" parent="1" source="lTgu4MH4PJnAtv3aotc7-2">
          <mxGeometry relative="1" as="geometry">
            <mxPoint x="420" y="160" as="targetPoint" />
          </mxGeometry>
        </mxCell>
        <mxCell id="lTgu4MH4PJnAtv3aotc7-2" value="File storage as real time raw data" style="rounded=0;whiteSpace=wrap;html=1;" vertex="1" parent="1">
          <mxGeometry x="230" y="130" width="120" height="60" as="geometry" />
        </mxCell>
        <mxCell id="lTgu4MH4PJnAtv3aotc7-4" style="edgeStyle=orthogonalEdgeStyle;rounded=0;orthogonalLoop=1;jettySize=auto;html=1;" edge="1" parent="1" source="lTgu4MH4PJnAtv3aotc7-3">
          <mxGeometry relative="1" as="geometry">
            <mxPoint x="290" y="360" as="targetPoint" />
          </mxGeometry>
        </mxCell>
        <mxCell id="lTgu4MH4PJnAtv3aotc7-3" value="Databricks on GCP or any other ETL solution" style="rounded=0;whiteSpace=wrap;html=1;" vertex="1" parent="1">
          <mxGeometry x="230" y="230" width="120" height="60" as="geometry" />
        </mxCell>
        <mxCell id="lTgu4MH4PJnAtv3aotc7-10" style="edgeStyle=orthogonalEdgeStyle;rounded=0;orthogonalLoop=1;jettySize=auto;html=1;exitX=0.5;exitY=1;exitDx=0;exitDy=0;entryX=0.5;entryY=1;entryDx=0;entryDy=0;" edge="1" parent="1" source="lTgu4MH4PJnAtv3aotc7-6" target="lTgu4MH4PJnAtv3aotc7-11">
          <mxGeometry relative="1" as="geometry">
            <mxPoint x="480" y="430" as="targetPoint" />
            <Array as="points">
              <mxPoint x="290" y="460" />
              <mxPoint x="490" y="460" />
            </Array>
          </mxGeometry>
        </mxCell>
        <mxCell id="lTgu4MH4PJnAtv3aotc7-6" value="Summary data for 15 days" style="rounded=0;whiteSpace=wrap;html=1;" vertex="1" parent="1">
          <mxGeometry x="230" y="360" width="120" height="60" as="geometry" />
        </mxCell>
        <mxCell id="lTgu4MH4PJnAtv3aotc7-9" style="edgeStyle=orthogonalEdgeStyle;rounded=0;orthogonalLoop=1;jettySize=auto;html=1;entryX=1;entryY=0.5;entryDx=0;entryDy=0;" edge="1" parent="1" source="lTgu4MH4PJnAtv3aotc7-8" target="lTgu4MH4PJnAtv3aotc7-6">
          <mxGeometry relative="1" as="geometry">
            <Array as="points">
              <mxPoint x="480" y="200" />
              <mxPoint x="385" y="200" />
              <mxPoint x="385" y="390" />
            </Array>
          </mxGeometry>
        </mxCell>
        <mxCell id="lTgu4MH4PJnAtv3aotc7-8" value="Append the data" style="rounded=0;whiteSpace=wrap;html=1;" vertex="1" parent="1">
          <mxGeometry x="420" y="130" width="120" height="60" as="geometry" />
        </mxCell>
        <mxCell id="lTgu4MH4PJnAtv3aotc7-11" value="Data science" style="rounded=0;whiteSpace=wrap;html=1;" vertex="1" parent="1">
          <mxGeometry x="430" y="340" width="120" height="60" as="geometry" />
        </mxCell>
        <mxCell id="lTgu4MH4PJnAtv3aotc7-12" value="Another file storage/Big query" style="rounded=0;whiteSpace=wrap;html=1;" vertex="1" parent="1">
          <mxGeometry x="320" y="440" width="120" height="60" as="geometry" />
        </mxCell>
      </root>
    </mxGraphModel>
  </diagram>
  <diagram id="mg38nMgWwMP0FP1E28-j" name="Page-2">
    <mxGraphModel dx="1562" dy="522" grid="1" gridSize="10" guides="1" tooltips="1" connect="1" arrows="1" fold="1" page="1" pageScale="1" pageWidth="850" pageHeight="1100" math="0" shadow="0">
      <root>
        <mxCell id="0" />
        <mxCell id="1" parent="0" />
        <mxCell id="PRYD5AgjtpRTNm1kwkJZ-1" style="edgeStyle=orthogonalEdgeStyle;rounded=0;orthogonalLoop=1;jettySize=auto;html=1;exitX=1;exitY=0.5;exitDx=0;exitDy=0;entryX=0;entryY=0.25;entryDx=0;entryDy=0;" edge="1" parent="1" source="QCvdsWyQen9NIULK8CYR-1" target="QCvdsWyQen9NIULK8CYR-2">
          <mxGeometry relative="1" as="geometry" />
        </mxCell>
        <mxCell id="QCvdsWyQen9NIULK8CYR-1" value="API data from verizon and Workday" style="rounded=0;whiteSpace=wrap;html=1;" vertex="1" parent="1">
          <mxGeometry x="50" y="210" width="120" height="60" as="geometry" />
        </mxCell>
        <mxCell id="PRYD5AgjtpRTNm1kwkJZ-2" style="edgeStyle=orthogonalEdgeStyle;rounded=0;orthogonalLoop=1;jettySize=auto;html=1;exitX=0.5;exitY=1;exitDx=0;exitDy=0;" edge="1" parent="1" source="QCvdsWyQen9NIULK8CYR-2">
          <mxGeometry relative="1" as="geometry">
            <mxPoint x="290" y="260" as="targetPoint" />
          </mxGeometry>
        </mxCell>
        <mxCell id="QCvdsWyQen9NIULK8CYR-2" value="Databricks pyspark connect to API&#39;s" style="rounded=0;whiteSpace=wrap;html=1;" vertex="1" parent="1">
          <mxGeometry x="290" y="140" width="120" height="60" as="geometry" />
        </mxCell>
        <mxCell id="PRYD5AgjtpRTNm1kwkJZ-7" style="edgeStyle=orthogonalEdgeStyle;rounded=0;orthogonalLoop=1;jettySize=auto;html=1;" edge="1" parent="1" source="QCvdsWyQen9NIULK8CYR-3">
          <mxGeometry relative="1" as="geometry">
            <mxPoint x="570" y="410" as="targetPoint" />
          </mxGeometry>
        </mxCell>
        <mxCell id="PRYD5AgjtpRTNm1kwkJZ-9" style="edgeStyle=orthogonalEdgeStyle;rounded=0;orthogonalLoop=1;jettySize=auto;html=1;" edge="1" parent="1" source="QCvdsWyQen9NIULK8CYR-3">
          <mxGeometry relative="1" as="geometry">
            <mxPoint x="390" y="520" as="targetPoint" />
          </mxGeometry>
        </mxCell>
        <mxCell id="QCvdsWyQen9NIULK8CYR-3" value="Database 3 - final layer for machine learning" style="rounded=0;whiteSpace=wrap;html=1;" vertex="1" parent="1">
          <mxGeometry x="330" y="380" width="120" height="60" as="geometry" />
        </mxCell>
        <mxCell id="PRYD5AgjtpRTNm1kwkJZ-6" style="edgeStyle=orthogonalEdgeStyle;rounded=0;orthogonalLoop=1;jettySize=auto;html=1;entryX=0;entryY=0.5;entryDx=0;entryDy=0;" edge="1" parent="1" source="PRYD5AgjtpRTNm1kwkJZ-3" target="PRYD5AgjtpRTNm1kwkJZ-4">
          <mxGeometry relative="1" as="geometry" />
        </mxCell>
        <mxCell id="PRYD5AgjtpRTNm1kwkJZ-3" value="Database 1 - Workday data , verizon data&amp;nbsp;" style="rounded=0;whiteSpace=wrap;html=1;" vertex="1" parent="1">
          <mxGeometry x="240" y="260" width="120" height="60" as="geometry" />
        </mxCell>
        <mxCell id="PRYD5AgjtpRTNm1kwkJZ-5" style="edgeStyle=orthogonalEdgeStyle;rounded=0;orthogonalLoop=1;jettySize=auto;html=1;entryX=0.5;entryY=0;entryDx=0;entryDy=0;" edge="1" parent="1" source="PRYD5AgjtpRTNm1kwkJZ-4" target="QCvdsWyQen9NIULK8CYR-3">
          <mxGeometry relative="1" as="geometry" />
        </mxCell>
        <mxCell id="PRYD5AgjtpRTNm1kwkJZ-4" value="Database 2 - second layer of data(raw data1+data2)&amp;nbsp;" style="rounded=0;whiteSpace=wrap;html=1;" vertex="1" parent="1">
          <mxGeometry x="410" y="260" width="120" height="60" as="geometry" />
        </mxCell>
        <mxCell id="PRYD5AgjtpRTNm1kwkJZ-8" value="Machine learning toolset connection" style="rounded=0;whiteSpace=wrap;html=1;" vertex="1" parent="1">
          <mxGeometry x="570" y="380" width="120" height="60" as="geometry" />
        </mxCell>
        <mxCell id="PRYD5AgjtpRTNm1kwkJZ-10" value="Google big query or google cloud storage(parquet files or delta files or json outputs)" style="rounded=0;whiteSpace=wrap;html=1;" vertex="1" parent="1">
          <mxGeometry x="330" y="520" width="140" height="70" as="geometry" />
        </mxCell>
      </root>
    </mxGraphModel>
  </diagram>
  <diagram id="m-Ehz_6rKM0QzNkLQYMt" name="Page-3">
    <mxGraphModel dx="1562" dy="522" grid="1" gridSize="10" guides="1" tooltips="1" connect="1" arrows="1" fold="1" page="1" pageScale="1" pageWidth="850" pageHeight="1100" math="0" shadow="0">
      <root>
        <mxCell id="0" />
        <mxCell id="1" parent="0" />
        <mxCell id="LNUuCH1ekDgVDzrB6UbP-4" style="edgeStyle=orthogonalEdgeStyle;rounded=0;orthogonalLoop=1;jettySize=auto;html=1;" edge="1" parent="1" source="LNUuCH1ekDgVDzrB6UbP-1" target="LNUuCH1ekDgVDzrB6UbP-3">
          <mxGeometry relative="1" as="geometry" />
        </mxCell>
        <mxCell id="LNUuCH1ekDgVDzrB6UbP-1" value="Driver dimension - complete driver details&amp;nbsp;" style="rounded=0;whiteSpace=wrap;html=1;" vertex="1" parent="1">
          <mxGeometry x="200" y="140" width="120" height="60" as="geometry" />
        </mxCell>
        <mxCell id="LNUuCH1ekDgVDzrB6UbP-3" value="Old data - when a driver is not a part of company&amp;nbsp;&lt;div&gt;&lt;br&gt;&lt;/div&gt;&lt;div&gt;New data&amp;nbsp; - new driver recruited&lt;/div&gt;&lt;div&gt;&lt;br&gt;&lt;/div&gt;&lt;div&gt;Updated data - when some attributes of new driver change&lt;/div&gt;" style="rounded=0;whiteSpace=wrap;html=1;" vertex="1" parent="1">
          <mxGeometry x="170" y="270" width="200" height="120" as="geometry" />
        </mxCell>
        <mxCell id="LNUuCH1ekDgVDzrB6UbP-5" value="Vehicle dimension" style="rounded=0;whiteSpace=wrap;html=1;" vertex="1" parent="1">
          <mxGeometry x="380" y="140" width="120" height="60" as="geometry" />
        </mxCell>
        <mxCell id="LNUuCH1ekDgVDzrB6UbP-6" value="Driver fact table&lt;div&gt;&lt;br&gt;&lt;/div&gt;&lt;div&gt;1. Punch in punch out&lt;/div&gt;&lt;div&gt;all kinds of transaction data&lt;/div&gt;&lt;div&gt;&lt;br&gt;&lt;/div&gt;&lt;div&gt;2. vehicle assignment&lt;/div&gt;&lt;div&gt;&lt;br&gt;&lt;/div&gt;" style="rounded=0;whiteSpace=wrap;html=1;" vertex="1" parent="1">
          <mxGeometry x="540" y="290" width="180" height="100" as="geometry" />
        </mxCell>
        <mxCell id="LNUuCH1ekDgVDzrB6UbP-10" style="edgeStyle=orthogonalEdgeStyle;rounded=0;orthogonalLoop=1;jettySize=auto;html=1;entryX=0.5;entryY=0;entryDx=0;entryDy=0;" edge="1" parent="1" source="LNUuCH1ekDgVDzrB6UbP-9" target="LNUuCH1ekDgVDzrB6UbP-6">
          <mxGeometry relative="1" as="geometry" />
        </mxCell>
        <mxCell id="LNUuCH1ekDgVDzrB6UbP-9" value="&lt;div&gt;Raw data from API&lt;/div&gt;" style="rounded=0;whiteSpace=wrap;html=1;" vertex="1" parent="1">
          <mxGeometry x="560" y="70" width="140" height="60" as="geometry" />
        </mxCell>
        <mxCell id="LNUuCH1ekDgVDzrB6UbP-11" value="&lt;div&gt;ETL with GCP tooling and update fact&lt;/div&gt;" style="rounded=0;whiteSpace=wrap;html=1;" vertex="1" parent="1">
          <mxGeometry x="570" y="170" width="140" height="60" as="geometry" />
        </mxCell>
      </root>
    </mxGraphModel>
  </diagram>
</mxfile>
